<?xml version="1.0" encoding="utf-8"?>
<!-- Generator: Adobe Adobe Illustrator 29.2.0, SVG Export Plug-In . SVG Version: 6.00 Build 0)  -->
<svg version="1.1" id="Layer_1" xmlns="http://www.w3.org/2000/svg" xmlns:xlink="http://www.w3.org/1999/xlink" x="0px" y="0px"
	 width="32px" height="32px" viewBox="0 0 32 32" style="enable-background:new 0 0 32 32;" xml:space="preserve">
<style type="text/css">
	.st0{fill:currentColor;}
</style>
<g>
	<g>
		<g>
			<path class="st0" d="M24,0H8C3.58,0,0,3.58,0,8v16c0,4.42,3.58,8,8,8h16c4.42,0,8-3.58,8-8V8C32,3.58,28.42,0,24,0z M26.29,13.73
				c-0.52,0.92-1.3,1.63-2.25,2.04c0.12,0.24,0.21,0.49,0.29,0.76l0.14,0.53c0.34,1.19,0.19,2.48-0.44,3.59
				c-0.62,1.11-1.64,1.91-2.86,2.26l-0.16,0.05c-0.17,2.47-2.24,4.43-4.76,4.43h-0.5c-1.53,0-2.92-0.73-3.8-1.88l-0.66,0.18
				c-2.53,0.71-5.17-0.77-5.88-3.29L5.28,21.9c-0.52-1.84,0.12-3.74,1.48-4.91c-0.21-0.35-0.37-0.72-0.48-1.13l-0.14-0.47
				c-0.35-1.24-0.2-2.53,0.43-3.64c0.62-1.11,1.64-1.91,2.87-2.25l1.55-0.44c0.17-2.48,2.24-4.45,4.76-4.45h0.5
				c1.54,0,2.93,0.73,3.81,1.89l0.65-0.18c1.23-0.35,2.52-0.19,3.64,0.44c1.11,0.62,1.91,1.64,2.25,2.87l0.14,0.48
				C27.07,11.33,26.92,12.61,26.29,13.73z"/>
			<path class="st0" d="M22.74,10.7c-0.07-0.27-0.26-0.4-0.36-0.46c-0.11-0.06-0.32-0.15-0.59-0.07l-2.27,0.64
				c-0.54,0.15-1.13,0.07-1.6-0.23c-0.48-0.3-0.81-0.79-0.91-1.34c-0.06-0.35-0.39-0.62-0.76-0.62h-0.5c-0.42,0-0.77,0.35-0.77,0.77
				v1.19c0,0.89-0.59,1.68-1.46,1.92l-3,0.85c-0.28,0.08-0.41,0.26-0.47,0.37c-0.07,0.13-0.14,0.33-0.07,0.58l0.13,0.47
				c0.12,0.42,0.53,0.66,0.94,0.55c1.06-0.28,2.15,0.34,2.44,1.41c0.29,1.06-0.33,2.16-1.39,2.45l-2.47,0.69
				c-0.4,0.11-0.64,0.54-0.53,0.95l0.14,0.49c0.12,0.41,0.54,0.65,0.95,0.53l2.27-0.64c0.18-0.05,0.36-0.07,0.54-0.07
				c0.37,0,0.74,0.1,1.06,0.3c0.48,0.3,0.81,0.78,0.91,1.33c0.06,0.31,0.34,0.63,0.76,0.63h0.5c0.43,0,0.77-0.34,0.77-0.77v-1.18
				c0-0.9,0.6-1.68,1.46-1.93l1.61-0.45c0.26-0.07,0.4-0.26,0.46-0.37c0.06-0.1,0.15-0.32,0.07-0.58l-0.14-0.52
				c-0.11-0.37-0.53-0.61-0.94-0.5c-1.06,0.28-2.15-0.35-2.44-1.41c-0.29-1.06,0.33-2.15,1.39-2.45l3.87-1.09
				c0.41-0.12,0.65-0.54,0.53-0.95L22.74,10.7z"/>
		</g>
	</g>
</g>
</svg>
