<?xml version="1.0" encoding="utf-8"?>
<!-- Generator: Adobe Adobe Illustrator 29.2.0, SVG Export Plug-In . SVG Version: 6.00 Build 0)  -->
<svg version="1.1" id="Layer_1" xmlns="http://www.w3.org/2000/svg" xmlns:xlink="http://www.w3.org/1999/xlink" x="0px" y="0px"
	 width="32px" height="32px" viewBox="0 0 32 32" style="enable-background:new 0 0 32 32;" xml:space="preserve">
<style type="text/css">
	.st1{fill:none;stroke:currentColor;stroke-width:4;stroke-linejoin:round;stroke-miterlimit:10;}
</style>
<path class="st1" d="M22.89,14.06l-3.87,1.09c1.47-0.39,2.97,0.46,3.39,1.92l0.13,0.49c0.42,1.47-0.44,3-1.91,3.42l-1.61,0.45v1.18
	c0,1.53-1.24,2.77-2.77,2.77h-0.5c-1.36,0-2.48-0.98-2.72-2.26l-2.27,0.64c-1.48,0.42-3-0.44-3.42-1.91L7.2,21.36
	c-0.42-1.47,0.44-3,1.91-3.42l2.47-0.69c-1.46,0.39-2.96-0.46-3.38-1.93l-0.14-0.48c-0.42-1.48,0.44-3,1.92-3.42l3-0.85V9.38
	c0-1.52,1.24-2.77,2.77-2.77h0.5c1.36,0,2.49,0.98,2.72,2.27l2.27-0.64c1.48-0.42,3.01,0.44,3.42,1.91l0.14,0.49
	C25.21,12.11,24.36,13.65,22.89,14.06z"/>
</svg>
